<?xml version="1.0" standalone="no"?>
<!DOCTYPE svg PUBLIC "-//W3C//DTD SVG 20010904//EN"
 "http://www.w3.org/TR/2001/REC-SVG-20010904/DTD/svg10.dtd">
<svg version="1.0" xmlns="http://www.w3.org/2000/svg"
 width="446.000000pt" height="446.000000pt" viewBox="0 0 446.000000 446.000000"
 preserveAspectRatio="xMidYMid meet">
<metadata>
Created by potrace 1.11, written by Peter Selinger 2001-2013
</metadata>
<g transform="translate(0.000000,446.000000) scale(0.100000,-0.100000)"
fill="#000000" stroke="none">
<path d="M0 2230 l0 -2230 2230 0 2230 0 0 2230 0 2230 -2230 0 -2230 0 0
-2230z m1056 276 c192 -338 325 -583 345 -635 46 -123 60 -154 65 -149 2 3 -3
69 -11 147 -11 108 -15 269 -15 652 l0 509 90 0 90 0 -2 -852 -3 -853 -54 0
-54 0 -308 545 c-243 429 -320 573 -360 678 -29 73 -54 131 -56 129 -2 -2 4
-68 12 -146 11 -108 15 -270 15 -662 l0 -519 -90 0 -90 0 0 848 c0 467 3 852
7 856 4 4 29 6 57 4 l49 -3 313 -549z m1442 519 c121 -37 203 -115 238 -223
25 -82 23 -228 -5 -312 -36 -106 -106 -193 -183 -227 -21 -9 -38 -20 -38 -24
0 -5 16 -12 35 -18 90 -25 170 -95 212 -187 27 -60 47 -198 38 -269 -35 -278
-199 -418 -505 -432 -103 -5 -282 7 -346 23 l-24 6 2 826 3 826 40 8 c144 30
440 32 533 3z m1026 10 c118 -19 199 -59 265 -130 90 -100 122 -198 122 -380
-1 -177 -40 -289 -138 -395 -97 -106 -234 -153 -432 -149 l-106 2 -3 -317 -2
-316 -90 0 -90 0 2 832 3 832 35 8 c115 27 315 33 434 13z"/>
<path d="M2117 2874 c-16 -5 -17 -26 -15 -297 l3 -292 118 2 c142 3 183 19
257 100 54 59 82 128 83 207 3 130 -37 217 -119 257 -43 21 -64 24 -179 26
-71 1 -138 -1 -148 -3z"/>
<path d="M2107 2123 c-4 -3 -7 -140 -7 -304 0 -227 3 -300 13 -306 6 -4 65 -9
129 -11 142 -5 200 11 266 71 55 52 78 96 93 182 33 193 -61 335 -241 364 -72
12 -243 15 -253 4z"/>
<path d="M3248 2874 c-17 -5 -18 -31 -18 -359 0 -252 3 -356 11 -361 7 -4 59
-7 118 -6 160 0 237 33 301 130 43 66 61 136 62 245 1 163 -47 264 -153 322
-51 27 -62 29 -179 32 -69 1 -133 -1 -142 -3z"/>
</g>
</svg>
